<!DOCTYPE svg PUBLIC "-//W3C//DTD SVG 1.1//EN" "http://www.w3.org/Graphics/SVG/1.1/DTD/svg11.dtd">
<!-- Uploaded to: SVG Repo, www.svgrepo.com, Transformed by: SVG Repo Mixer Tools -->
<svg fill="#f7c552" height="64px" width="64px" version="1.1" id="Layer_1" xmlns="http://www.w3.org/2000/svg" xmlns:xlink="http://www.w3.org/1999/xlink" viewBox="-143.36 -143.36 798.72 798.72" xml:space="preserve" stroke="#f7c552">
<g id="SVGRepo_bgCarrier" stroke-width="0"/>
<g id="SVGRepo_tracerCarrier" stroke-linecap="round" stroke-linejoin="round"/>
<g id="SVGRepo_iconCarrier"> <g> <g> <path d="M490.667,0H21.333C9.536,0,0,9.557,0,21.333v469.333C0,502.443,9.536,512,21.333,512h469.333 c11.797,0,21.333-9.557,21.333-21.333V21.333C512,9.557,502.464,0,490.667,0z M405.333,405.333H106.667 c-11.797,0-21.333-9.557-21.333-21.333s9.536-21.333,21.333-21.333h298.667c11.797,0,21.333,9.557,21.333,21.333 S417.131,405.333,405.333,405.333z M405.333,277.333H106.667c-11.797,0-21.333-9.557-21.333-21.333s9.536-21.333,21.333-21.333 h298.667c11.797,0,21.333,9.557,21.333,21.333S417.131,277.333,405.333,277.333z M405.333,149.333H106.667 c-11.797,0-21.333-9.557-21.333-21.333s9.536-21.333,21.333-21.333h298.667c11.797,0,21.333,9.557,21.333,21.333 S417.131,149.333,405.333,149.333z"/> </g> </g> </g>
</svg>